<svg xmlns="http://www.w3.org/2000/svg" viewBox="0 0 64 64">
  <defs>
    <style>
      .cls-1 {
        fill: #d0d7dc
      }

      .cls-2 {
        fill: #b2b9bf
      }

      .cls-3 {
        fill: #00b39b
      }

      .cls-5 {
        fill: #29394a
      }
    </style>
  </defs>
  <g id="_15-checklist" data-name="15-checklist">
    <path class="cls-1" d="M1 15h13v10H1z" />
    <path class="cls-2" d="M14 15h12v10H14z" />
    <path class="cls-1" d="M26 15h12v10H26z" />
    <path class="cls-2" d="M38 15h12v10H38z" />
    <path class="cls-1" d="M50 15h13v10H50z" />
    <path class="cls-2" d="M1 53h13v10H5a4 4 0 0 1-4-4v-6z" />
    <path class="cls-1" d="M14 53h12v10H14z" />
    <path class="cls-2" d="M26 53h12v10H26z" />
    <path class="cls-1" d="M38 53h12v10H38z" />
    <path class="cls-2" d="M50 53h13v6a4 4 0 0 1-4 4h-9V53zM1 25h13v14H1z" />
    <path class="cls-1" d="M14 25h12v14H14z" />
    <path class="cls-3" d="M26 25h12v14H26z" />
    <path class="cls-1" d="M38 25h12v14H38z" />
    <path class="cls-2" d="M50 25h13v14H50z" />
    <path class="cls-1" d="M1 39h13v14H1z" />
    <path class="cls-3" d="M14 39h12v14H14z" />
    <path class="cls-1" d="M26 39h12v14H26z" />
    <path class="cls-3" d="M38 39h12v14H38z" />
    <path class="cls-1"
      d="M50 39h13v14H50zM54 6v3a2 2 0 0 1-4 0V3a2.006 2.006 0 0 1 2-2 1.955 1.955 0 0 1 1.41.59A1.955 1.955 0 0 1 54 3zM44 6v3a2 2 0 0 1-4 0V3a2.006 2.006 0 0 1 2-2 1.955 1.955 0 0 1 1.41.59A1.955 1.955 0 0 1 44 3zM34 6v3a2 2 0 0 1-4 0V3a2.006 2.006 0 0 1 2-2 1.955 1.955 0 0 1 1.41.59A1.955 1.955 0 0 1 34 3zM24 6v3a2 2 0 0 1-4 0V3a2.006 2.006 0 0 1 2-2 1.955 1.955 0 0 1 1.41.59A1.955 1.955 0 0 1 24 3zM14 6v3a2 2 0 0 1-4 0V3a2.006 2.006 0 0 1 2-2 1.955 1.955 0 0 1 1.41.59A1.955 1.955 0 0 1 14 3z" />
    <path
      d="M63 10v5H1v-5a4 4 0 0 1 4-4h5v3a2 2 0 0 0 4 0V6h6v3a2 2 0 0 0 4 0V6h6v3a2 2 0 0 0 4 0V6h6v3a2 2 0 0 0 4 0V6h6v3a2 2 0 0 0 4 0V6h5a4 4 0 0 1 4 4z"
      style="fill:#2d91c0" />
    <path class="cls-5"
      d="M59 5h-4V3a2.922 2.922 0 0 0-.874-2.108A2.944 2.944 0 0 0 52 0a3 3 0 0 0-3 3v2h-4V3a2.922 2.922 0 0 0-.874-2.108A2.944 2.944 0 0 0 42 0a3 3 0 0 0-3 3v2h-4V3a2.922 2.922 0 0 0-.874-2.108A2.944 2.944 0 0 0 32 0a3 3 0 0 0-3 3v2h-4V3a2.922 2.922 0 0 0-.874-2.108A2.944 2.944 0 0 0 22 0a3 3 0 0 0-3 3v2h-4V3a2.922 2.922 0 0 0-.874-2.108A2.944 2.944 0 0 0 12 0a3 3 0 0 0-3 3v2H5a5.006 5.006 0 0 0-5 5v49a5.006 5.006 0 0 0 5 5h54a5.006 5.006 0 0 0 5-5V10a5.006 5.006 0 0 0-5-5zm-8-2a1 1 0 0 1 1-1 .978.978 0 0 1 .713.306A.965.965 0 0 1 53 3v6a1 1 0 0 1-2 0zM41 3a1 1 0 0 1 1-1 .978.978 0 0 1 .713.306A.965.965 0 0 1 43 3v6a1 1 0 0 1-2 0zM31 3a1 1 0 0 1 1-1 .978.978 0 0 1 .713.306A.965.965 0 0 1 33 3v6a1 1 0 0 1-2 0zM21 3a1 1 0 0 1 1-1 .978.978 0 0 1 .713.306A.965.965 0 0 1 23 3v6a1 1 0 0 1-2 0zM11 3a1 1 0 0 1 1-1 .978.978 0 0 1 .713.306A.965.965 0 0 1 13 3v6a1 1 0 0 1-2 0zM5 7h4v2a3 3 0 0 0 6 0V7h4v2a3 3 0 0 0 6 0V7h4v2a3 3 0 0 0 6 0V7h4v2a3 3 0 0 0 6 0V7h4v2a3 3 0 0 0 6 0V7h4a3 3 0 0 1 3 3v4H2v-4a3 3 0 0 1 3-3zm54 55H5a3 3 0 0 1-3-3V16h60v43a3 3 0 0 1-3 3z" />
    <path class="cls-5"
      d="M51 18h-2v6H39v-6h-2v6H27v-6h-2v6H15v-6h-2v6H4v2h9v12H4v2h9v12H4v2h9v6h2v-6h10v6h2v-6h10v6h2v-6h10v6h2v-6h9v-2h-9V40h9v-2h-9V26h9v-2h-9zm-14 8v12H27V26zm-22 0h10v12H15zm0 26V40h10v12zm12 0V40h10v12zm22 0H39V40h10zm0-14H39V26h10z" />
    <path class="cls-5"
      d="M42.293 48.707a1 1 0 0 0 1.414 0l4-4-1.414-1.414L43 46.586l-1.293-1.293-1.414 1.414zM30.293 33.707a1 1 0 0 0 1.414 0l4-4-1.414-1.414L31 31.586l-1.293-1.293-1.414 1.414zM22.293 43.293 19 46.586l-1.293-1.293-1.414 1.414 2 2a1 1 0 0 0 1.414 0l4-4z" />
  </g>
</svg>